<svg width="12" height="16" viewBox="0 0 12 16" fill="none" xmlns="http://www.w3.org/2000/svg">
<path d="M10.4437 1.63959C9.39277 0.582308 7.93836 0 6.34845 0C3.91977 0 2.42602 1.04329 1.6006 1.91846C0.583336 2.997 0 4.42908 0 5.84759C0 7.62863 0.710876 8.99564 1.90133 9.5042C1.98125 9.53852 2.06167 9.55581 2.14051 9.55581C2.39165 9.55581 2.59064 9.3836 2.65958 9.10736C2.69976 8.94888 2.79288 8.55793 2.83336 8.3882C2.92003 8.05303 2.85 7.89181 2.66101 7.6584C2.3167 7.23148 2.15636 6.72663 2.15636 6.0696C2.15636 4.11801 3.54306 2.04386 6.11316 2.04386C8.15242 2.04386 9.41921 3.25848 9.41921 5.21368C9.41921 6.4475 9.16561 7.59013 8.70498 8.43124C8.3849 9.01566 7.82205 9.71233 6.95798 9.71233C6.58432 9.71233 6.24868 9.55147 6.03688 9.27105C5.83681 9.00596 5.77087 8.66351 5.85133 8.30661C5.94224 7.90337 6.06618 7.48274 6.18614 7.0761C6.40493 6.3334 6.61175 5.63194 6.61175 5.07228C6.61175 4.11502 6.05018 3.47181 5.21447 3.47181C4.15239 3.47181 3.32033 4.60227 3.32033 6.04539C3.32033 6.75315 3.49982 7.28252 3.58107 7.48579C3.44728 8.07986 2.6521 11.6117 2.50126 12.2778C2.41405 12.6665 1.88868 15.7373 2.75826 15.9822C3.7353 16.2573 4.60863 13.2666 4.69752 12.9286C4.76956 12.6537 5.02163 11.6145 5.17611 10.9756C5.64776 11.4517 6.40719 11.7736 7.14614 11.7736C8.53918 11.7736 9.79198 11.1166 10.6738 9.92391C11.529 8.76703 12 7.15459 12 5.38382C12 3.99947 11.4327 2.63473 10.4437 1.63959Z" fill="#666666"/>
</svg>
