<svg width="16" height="13" viewBox="0 0 16 13" fill="none" xmlns="http://www.w3.org/2000/svg">
<path d="M16 1.539C15.4115 1.79991 14.7784 1.97637 14.1145 2.05518C14.7924 1.64914 15.3126 1.00666 15.5581 0.239857C14.9238 0.616041 14.221 0.888939 13.4736 1.03604C12.8748 0.398456 12.0217 0 11.077 0C9.26442 0 7.79436 1.46974 7.79436 3.28188C7.79436 3.53911 7.82349 3.78949 7.8798 4.02984C5.15169 3.89302 2.73276 2.58654 1.11362 0.600377C0.831115 1.08499 0.669053 1.64914 0.669053 2.25049C0.669053 3.38884 1.249 4.39379 2.12932 4.98217C1.59148 4.96528 1.08498 4.8177 0.642615 4.57123C0.64237 4.58518 0.64237 4.59913 0.64237 4.61284C0.64237 6.20299 1.77435 7.5293 3.27574 7.83059C3.00058 7.90598 2.71 7.94587 2.41109 7.94587C2.19909 7.94587 1.9937 7.92556 1.79345 7.88738C2.21108 9.19093 3.42312 10.1398 4.85988 10.1665C3.73622 11.0469 2.321 11.5714 0.782643 11.5714C0.518253 11.5714 0.256311 11.556 0 11.5254C1.45194 12.4569 3.17782 13 5.03149 13C11.0694 13 14.3713 7.99923 14.3713 3.66198C14.3713 3.51978 14.3681 3.37807 14.3618 3.23758C15.0036 2.775 15.5601 2.19714 16 1.539Z" fill="#666666"/>
</svg>
